<svg width="4228" height="936" viewBox="0 0 4228 936" fill="none" xmlns="http://www.w3.org/2000/svg">
<path d="M288.554 667.21C235.644 667.21 187.211 652.558 143.255 623.254C100.113 593.95 65.518 554.064 39.4699 503.596C13.4219 453.128 0.397949 396.148 0.397949 332.656C0.397949 268.35 13.4219 211.37 39.4699 161.716C66.332 111.248 102.148 71.7689 146.918 43.2789C192.502 14.7889 243.377 0.543945 299.543 0.543945C332.917 0.543945 363.442 5.42789 391.118 15.1959C418.794 24.9639 442.807 38.8019 463.157 56.7099C484.321 73.8039 501.415 93.7469 514.439 116.539C528.277 139.331 536.824 163.751 540.08 189.799L511.997 180.031V13.9749H638.981V655H511.997V502.375L541.301 493.828C536.417 515.806 526.242 537.377 510.776 558.541C496.124 578.891 476.995 597.206 453.389 613.486C430.597 629.766 404.956 642.79 376.466 652.558C348.79 662.326 319.486 667.21 288.554 667.21ZM321.521 551.215C359.779 551.215 393.56 541.854 422.864 523.132C452.168 504.41 474.96 478.769 491.24 446.209C508.334 412.835 516.881 374.984 516.881 332.656C516.881 291.142 508.334 254.105 491.24 221.545C474.96 188.985 452.168 163.344 422.864 144.622C393.56 125.9 359.779 116.539 321.521 116.539C284.077 116.539 250.703 125.9 221.399 144.622C192.909 163.344 170.117 188.985 153.023 221.545C136.743 254.105 128.603 291.142 128.603 332.656C128.603 374.984 136.743 412.835 153.023 446.209C170.117 478.769 192.909 504.41 221.399 523.132C250.703 541.854 284.077 551.215 321.521 551.215Z" fill="black" fill-opacity="0.82"/>
<path d="M1101.51 935.83C1055.93 935.83 1010.34 928.504 964.759 913.852C919.989 900.014 883.766 881.699 856.09 858.907L902.488 761.227C918.768 773.437 937.897 784.019 959.875 792.973C981.853 802.741 1005.05 810.067 1029.47 814.951C1053.89 820.649 1077.91 823.498 1101.51 823.498C1146.28 823.498 1183.73 816.172 1213.84 801.52C1243.96 786.868 1266.75 765.297 1282.22 736.807C1297.69 708.317 1305.42 672.908 1305.42 630.58V507.259L1318.85 515.806C1314.78 541.04 1301.35 565.46 1278.56 589.066C1256.58 611.858 1228.9 630.58 1195.53 645.232C1162.15 659.884 1127.97 667.21 1092.96 667.21C1031.91 667.21 977.376 652.965 929.35 624.475C882.138 595.171 844.694 555.692 817.018 506.038C789.342 455.57 775.504 398.183 775.504 333.877C775.504 269.571 788.935 212.591 815.797 162.937C843.473 112.469 880.917 72.9899 928.129 44.4999C976.155 15.1959 1029.88 0.543945 1089.3 0.543945C1113.72 0.543945 1137.33 3.79994 1160.12 10.312C1182.91 16.0099 1204.08 24.5569 1223.61 35.9529C1243.15 46.5349 1260.65 58.3379 1276.11 71.3619C1291.58 84.3859 1304.2 98.2239 1313.97 112.876C1323.73 127.528 1329.84 141.366 1332.28 154.39L1305.42 164.158V13.9749H1431.18V615.928C1431.18 667.21 1423.45 712.387 1407.98 751.459C1393.33 791.345 1371.76 824.719 1343.27 851.581C1314.78 879.257 1280.18 900.014 1239.48 913.852C1198.78 928.504 1152.79 935.83 1101.51 935.83ZM1106.4 551.215C1146.28 551.215 1181.69 541.854 1212.62 523.132C1243.55 504.41 1267.57 478.769 1284.66 446.209C1301.76 413.649 1310.3 376.205 1310.3 333.877C1310.3 291.549 1301.35 254.105 1283.44 221.545C1266.35 188.171 1242.33 162.123 1211.4 143.401C1181.28 124.679 1146.28 115.318 1106.4 115.318C1067.32 115.318 1032.32 125.086 1001.39 144.622C971.271 163.344 947.258 189.392 929.35 222.766C912.256 255.326 903.709 292.363 903.709 333.877C903.709 375.391 912.256 412.835 929.35 446.209C947.258 478.769 971.271 504.41 1001.39 523.132C1032.32 541.854 1067.32 551.215 1106.4 551.215Z" fill="black" fill-opacity="0.82"/>
<path d="M1607.51 923.62V13.9749H1734.49V160.495L1714.96 149.506C1719.84 125.086 1733.68 101.887 1756.47 79.9089C1779.26 57.1169 1806.94 38.8019 1839.5 24.9639C1872.87 10.3119 1907.06 2.9859 1942.06 2.9859C1999.86 2.9859 2051.14 17.2309 2095.91 45.7209C2140.68 74.2109 2176.09 113.283 2202.14 162.937C2228.19 212.591 2241.21 269.571 2241.21 333.877C2241.21 397.369 2228.19 454.349 2202.14 504.817C2176.9 554.471 2141.9 593.95 2097.13 623.254C2052.36 651.744 2001.89 665.989 1945.73 665.989C1908.28 665.989 1872.06 658.663 1837.06 644.011C1802.06 628.545 1772.35 609.009 1747.93 585.403C1723.51 561.797 1708.45 537.377 1702.75 512.143L1734.49 495.049V923.62H1607.51ZM1924.97 549.994C1962.41 549.994 1995.79 540.633 2025.09 521.911C2054.4 503.189 2077.6 477.548 2094.69 444.988C2111.78 412.428 2120.33 375.391 2120.33 333.877C2120.33 292.363 2111.78 255.733 2094.69 223.987C2078.41 191.427 2055.62 165.786 2026.31 147.064C1997.01 128.342 1963.23 118.981 1924.97 118.981C1886.71 118.981 1852.93 128.342 1823.63 147.064C1794.32 164.972 1771.12 190.206 1754.03 222.766C1736.94 255.326 1728.39 292.363 1728.39 333.877C1728.39 375.391 1736.94 412.428 1754.03 444.988C1771.12 477.548 1794.32 503.189 1823.63 521.911C1852.93 540.633 1886.71 549.994 1924.97 549.994Z" fill="black" fill-opacity="0.82"/>
<path d="M2377.79 655V13.9749H2504.77V215.44L2492.56 166.6C2501.52 135.668 2516.58 107.585 2537.74 82.351C2559.72 57.117 2584.55 37.1739 2612.22 22.5219C2640.71 7.86991 2670.02 0.543945 2700.13 0.543945C2713.97 0.543945 2727 1.76488 2739.21 4.20685C2752.23 6.64887 2762.4 9.4979 2769.73 12.7539L2736.76 149.506C2727 145.436 2716.01 142.18 2703.8 139.738C2692.4 136.482 2681 134.854 2669.61 134.854C2647.63 134.854 2626.47 139.331 2606.12 148.285C2586.58 156.425 2569.08 168.228 2553.61 183.694C2538.96 198.346 2527.16 215.847 2518.2 236.197C2509.25 255.733 2504.77 277.304 2504.77 300.91V655H2377.79Z" fill="black" fill-opacity="0.82"/>
<path d="M3130.98 667.21C3068.3 667.21 3012.13 652.965 2962.48 624.475C2913.64 595.171 2874.97 555.692 2846.48 506.038C2817.99 455.57 2803.75 398.183 2803.75 333.877C2803.75 269.571 2817.99 212.591 2846.48 162.937C2874.97 112.469 2913.64 72.9899 2962.48 44.4999C3012.13 15.1959 3068.3 0.543945 3130.98 0.543945C3192.84 0.543945 3248.19 15.1959 3297.03 44.4999C3346.69 72.9899 3385.76 112.469 3414.25 162.937C3442.74 212.591 3456.98 269.571 3456.98 333.877C3456.98 398.183 3442.74 455.57 3414.25 506.038C3385.76 555.692 3346.69 595.171 3297.03 624.475C3248.19 652.965 3192.84 667.21 3130.98 667.21ZM3130.98 552.436C3169.23 552.436 3203.42 543.075 3233.54 524.353C3263.66 504.817 3287.26 478.769 3304.36 446.209C3321.45 412.835 3329.59 375.391 3328.78 333.877C3329.59 291.549 3321.45 254.105 3304.36 221.545C3287.26 188.171 3263.66 162.123 3233.54 143.401C3203.42 124.679 3169.23 115.318 3130.98 115.318C3092.72 115.318 3058.12 125.086 3027.19 144.622C2997.07 163.344 2973.47 189.392 2956.37 222.766C2939.28 255.326 2931.14 292.363 2931.95 333.877C2931.14 375.391 2939.28 412.835 2956.37 446.209C2973.47 478.769 2997.07 504.817 3027.19 524.353C3058.12 543.075 3092.72 552.436 3130.98 552.436Z" fill="black" fill-opacity="0.82"/>
<path d="M3594.02 923.62V13.9749H3721V160.495L3701.47 149.506C3706.35 125.086 3720.19 101.887 3742.98 79.9089C3765.77 57.1169 3793.45 38.8019 3826.01 24.9639C3859.38 10.3119 3893.57 2.9859 3928.57 2.9859C3986.37 2.9859 4037.65 17.2309 4082.42 45.7209C4127.19 74.2109 4162.6 113.283 4188.65 162.937C4214.7 212.591 4227.72 269.571 4227.72 333.877C4227.72 397.369 4214.7 454.349 4188.65 504.817C4163.41 554.471 4128.41 593.95 4083.64 623.254C4038.87 651.744 3988.4 665.989 3932.24 665.989C3894.79 665.989 3858.57 658.663 3823.57 644.011C3788.57 628.545 3758.86 609.009 3734.44 585.403C3710.02 561.797 3694.96 537.377 3689.26 512.143L3721 495.049V923.62H3594.02ZM3911.48 549.994C3948.92 549.994 3982.3 540.633 4011.6 521.911C4040.91 503.189 4064.11 477.548 4081.2 444.988C4098.29 412.428 4106.84 375.391 4106.84 333.877C4106.84 292.363 4098.29 255.733 4081.2 223.987C4064.92 191.427 4042.13 165.786 4012.82 147.064C3983.52 128.342 3949.74 118.981 3911.48 118.981C3873.22 118.981 3839.44 128.342 3810.14 147.064C3780.83 164.972 3757.63 190.206 3740.54 222.766C3723.45 255.326 3714.9 292.363 3714.9 333.877C3714.9 375.391 3723.45 412.428 3740.54 444.988C3757.63 477.548 3780.83 503.189 3810.14 521.911C3839.44 540.633 3873.22 549.994 3911.48 549.994Z" fill="black" fill-opacity="0.82"/>
</svg>
